<?xml version="1.0" encoding="utf-8"?>
<!-- Generator: Adobe Illustrator 19.1.0, SVG Export Plug-In . SVG Version: 6.00 Build 0)  -->
<svg version="1.1" id="Layer_1" xmlns="http://www.w3.org/2000/svg" xmlns:xlink="http://www.w3.org/1999/xlink" x="0px" y="0px"
	 width="416px" height="416px" viewBox="-141 -8 416 416" style="enable-background:new -141 -8 416 416;" xml:space="preserve">
<style type="text/css">
	.st0{fill:#3E89F9;}
</style>
<g>
	<path class="st0" d="M236.5,79.4c4.7-5.9,7.5-13.5,7.5-21.6c0-19.2-15.6-34.8-34.8-34.8c-8.2,0-15.7,2.8-21.6,7.5
		C153.6,6.3,111.9-8,67-8C-47.9-8-141,85.1-141,200s93.1,208,208,208s208-93.1,208-208C275,155.1,260.7,113.4,236.5,79.4z
		 M202.8,335.8c-17.6,17.6-38.2,31.5-61.1,41.2c-23.7,10-48.8,15.1-74.8,15.1C41,392.1,15.8,387-7.9,377
		c-22.9-9.7-43.4-23.5-61.1-41.2c-17.6-17.6-31.5-38.2-41.2-61.1c-10-23.7-15.1-48.8-15.1-74.8c0-25.9,5.1-51.1,15.1-74.8
		c9.7-22.9,23.5-43.4,41.2-61.1s38.2-31.5,61.1-41.2c23.7-10,48.8-15.1,74.8-15.1c25.9,0,51.1,5.1,74.8,15.1
		c12.7,5.4,24.7,12.1,35.9,20c-2.1,4.5-3.3,9.5-3.3,14.9c0,19.2,15.6,34.8,34.8,34.8c5.3,0,10.3-1.2,14.9-3.3
		c7.9,11.2,14.6,23.2,20,35.9c10,23.7,15.1,48.8,15.1,74.8c0,25.9-5.1,51.1-15.1,74.8C234.3,297.6,220.5,318.2,202.8,335.8z"/>
	<circle class="st0" cx="67" cy="200" r="96.1"/>
</g>
</svg>
